<svg xmlns="http://www.w3.org/2000/svg" xmlns:xlink="http://www.w3.org/1999/xlink" version="1.1" x="0px" y="0px" viewBox="0 0 100 125" enable-background="new 0 0 100 100" xml:space="preserve"><g><path d="M16.238,85.354h29.758c0.88,0,1.593-0.712,1.593-1.592s-0.713-1.592-1.593-1.592H16.238c-4.441,0-8.055-3.613-8.055-8.055   V16.238c0-4.442,3.613-8.056,8.055-8.056H64.47c4.441,0,8.054,3.613,8.054,8.056v27.347c0,0.878,0.712,1.591,1.592,1.591   s1.592-0.713,1.592-1.591V16.238C75.707,10.042,70.666,5,64.47,5H16.238C10.042,5,5,10.042,5,16.238v57.877   C5,80.313,10.042,85.354,16.238,85.354z"/><path d="M71.703,48.408c-12.844,0-23.295,10.451-23.295,23.295C48.408,84.549,58.859,95,71.703,95C84.549,95,95,84.549,95,71.703   C95,58.859,84.549,48.408,71.703,48.408z M71.703,91.816c-11.09,0-20.111-9.023-20.111-20.113c0-11.091,9.021-20.111,20.111-20.111   c11.091,0,20.113,9.021,20.113,20.111C91.816,82.793,82.794,91.816,71.703,91.816z"/><path d="M58.055,24.293H22.653c-0.88,0-1.592,0.712-1.592,1.592c0,0.878,0.712,1.591,1.592,1.591h35.401   c0.88,0,1.592-0.713,1.592-1.591C59.646,25.005,58.935,24.293,58.055,24.293z"/><path d="M59.646,42.766c0-0.88-0.712-1.593-1.592-1.593H22.653c-0.88,0-1.592,0.713-1.592,1.593c0,0.878,0.712,1.591,1.592,1.591   h35.401C58.935,44.356,59.646,43.644,59.646,42.766z"/><path d="M22.653,58.055c-0.88,0-1.592,0.712-1.592,1.592s0.712,1.592,1.592,1.592h20.932c0.88,0,1.592-0.712,1.592-1.592   s-0.712-1.592-1.592-1.592H22.653z"/><path d="M72.83,60.931c-0.009-0.007-0.018-0.013-0.027-0.021c-0.066-0.063-0.138-0.124-0.215-0.177   c-0.043-0.028-0.089-0.048-0.134-0.071c-0.047-0.026-0.092-0.055-0.141-0.074c-0.055-0.022-0.111-0.035-0.168-0.053   c-0.043-0.013-0.084-0.029-0.13-0.039c-0.205-0.04-0.418-0.04-0.623,0c-0.046,0.01-0.087,0.026-0.13,0.039   c-0.057,0.018-0.113,0.03-0.168,0.053c-0.05,0.02-0.095,0.048-0.141,0.074c-0.045,0.023-0.092,0.043-0.134,0.071   c-0.077,0.053-0.149,0.113-0.216,0.177c-0.009,0.008-0.018,0.014-0.026,0.021l-9.646,9.646c-0.622,0.621-0.622,1.63,0,2.252   c0.621,0.621,1.63,0.621,2.251,0l6.928-6.93v15.45c0,0.879,0.713,1.593,1.592,1.593s1.594-0.714,1.594-1.593v-15.45l6.928,6.93   c0.312,0.311,0.719,0.468,1.125,0.468c0.407,0,0.815-0.157,1.126-0.468c0.622-0.622,0.622-1.631,0-2.252L72.83,60.931z"/></g></svg>
